<?xml version="1.0" standalone="no"?><!DOCTYPE svg PUBLIC "-//W3C//DTD SVG 1.1//EN" "http://www.w3.org/Graphics/SVG/1.1/DTD/svg11.dtd"><svg t="1632452843822" class="icon" viewBox="0 0 1024 1024" version="1.1" xmlns="http://www.w3.org/2000/svg" p-id="3539" width="16" height="16" xmlns:xlink="http://www.w3.org/1999/xlink"><defs><style type="text/css"></style></defs><path d="M700.631579 0a323.368421 323.368421 0 0 1 323.368421 323.368421v377.263158a323.368421 323.368421 0 0 1-323.368421 323.368421H323.368421a323.368421 323.368421 0 0 1-323.368421-323.368421V323.368421a323.368421 323.368421 0 0 1 323.368421-323.368421h377.263158zM284.564211 216.117895A686.726737 686.726737 0 0 1 215.578947 402.000842c6.898526 25.061053 14.012632 55.457684 21.234527 91.189895 8.623158-11.856842 16.761263-24.037053 24.46821-36.486737h15.791158V514.155789H217.303579v64.404211h59.769263v93.992421c0 20.533895-5.766737 37.995789-17.246316 52.439579l41.391158 56.427789c7.060211-9.323789 43.115789-34.169263 108.005053-74.64421a805.187368 805.187368 0 0 1-6.305684-75.237053c-16.815158 10.617263-33.899789 20.911158-51.2 30.773895v-83.752421h56.912842V514.155789H351.770947V456.650105h56.32V392.245895H296.582737c6.682947-13.689263 12.934737-27.540211 18.701474-41.606737h101.968842V286.827789H339.429053c6.251789-18.485895 12.072421-37.133474 17.515789-55.834947-0.377263 0-24.522105-4.958316-72.434526-14.821053zM640.161684 215.578947h-75.829895v155.001264H431.050105v398.336h77.015579v-118.514527h180.978527v12.557474c0 20.48-11.102316 30.72-33.306948 30.72-24.360421 0-48.666947-0.538947-72.973474-1.670737 8.407579 26.192842 14.928842 51.685053 19.509895 76.368842 45.002105 0 78.309053-0.646737 99.866948-1.886316 21.557895-1.239579 37.564632-8.623158 48.128-22.096842 10.509474-13.473684 15.791158-33.037474 15.791157-58.637473V370.580211h-125.84421V215.578947z m48.828632 329.404632v42.738526H508.065684v-42.738526h180.978527z m0-106.60379v43.331369H508.065684v-43.331369h180.978527z m36.217263-209.650526a983.902316 983.902316 0 0 1-77.608421 92.860632l49.421474 41.606737a1630.100211 1630.100211 0 0 0 82.189473-93.453474zM468.992 225.818947l-50.014316 43.331369c24.522105 27.755789 49.421474 58.314105 74.698105 91.728842l54.595369-45.594947a1624.710737 1624.710737 0 0 0-79.279158-89.465264z" fill="#999999" p-id="3540"></path></svg>